<!--?xml version="1.0" encoding="utf-8"?-->
<!-- Generator: Adobe Illustrator 15.1.0, SVG Export Plug-In . SVG Version: 6.00 Build 0)  -->

<svg version="1.1" id="_x32_" xmlns="http://www.w3.org/2000/svg" xmlns:xlink="http://www.w3.org/1999/xlink" x="0px" y="0px" width="512px" height="512px" viewBox="0 0 512 512" style="width: 256px; height: 256px; opacity: 1;" xml:space="preserve">
<style type="text/css">

	.st0{fill:#4B4B4B;}

</style>
<g>
	<path class="st0" d="M280.672,142.469c0,26.094-49.719,47.25-111.031,47.25c-61.344,0-111.047-21.156-111.047-47.25
		c0-26.125,49.703-47.281,111.047-47.281C230.953,95.188,280.672,116.344,280.672,142.469z" style="fill: rgb(217, 119, 6);"></path>
	<path class="st0" d="M58.594,464.719c0,26.125,49.703,47.281,111.047,47.281c61.313,0,111.031-21.156,111.031-47.281v-11.734
		c0-3.609-1.813-6.984-4.828-8.984c-3-1.984-6.828-2.344-10.141-0.906c0,0-34.75,21.469-96.063,21.469
		c-61.344,0-96.078-21.469-96.078-21.469c-3.313-1.438-7.141-1.078-10.141,0.906c-3.016,2-4.828,5.375-4.828,8.984V464.719z" style="fill: rgb(217, 119, 6);"></path>
	<path class="st0" d="M58.594,384.375c0,26.125,49.703,47.281,111.047,47.281c61.313,0,111.031-21.156,111.031-47.281v-11.734
		c0-3.609-1.813-6.984-4.828-8.984c-3-1.984-6.828-2.344-10.141-0.906c0,0-34.75,21.469-96.063,21.469
		c-61.344,0-96.078-21.469-96.078-21.469c-3.313-1.438-7.141-1.078-10.141,0.906c-3.016,2-4.828,5.375-4.828,8.984V384.375z" style="fill: rgb(217, 119, 6);"></path>
	<path class="st0" d="M58.594,304.063c0,26.109,49.703,47.25,111.047,47.25c61.313,0,111.031-21.141,111.031-47.25v-11.766
		c0-3.609-1.813-6.984-4.828-8.984c-3-1.984-6.828-2.313-10.141-0.906c0,0-34.75,21.469-96.063,21.469
		c-61.344,0-96.078-21.469-96.078-21.469c-3.313-1.406-7.141-1.078-10.141,0.906c-3.016,2-4.828,5.375-4.828,8.984V304.063z" style="fill: rgb(217, 119, 6);"></path>
	<path class="st0" d="M58.594,223.719c0,26.109,49.703,47.281,111.047,47.281c61.313,0,111.031-21.172,111.031-47.281v-11.75
		c0-3.609-1.813-6.969-4.828-8.969c-3-2-6.828-2.344-10.141-0.922c0,0-34.75,21.469-96.063,21.469
		c-61.344,0-96.078-21.469-96.078-21.469C70.25,200.656,66.422,201,63.422,203c-3.016,2-4.828,5.359-4.828,8.969V223.719z" style="fill: rgb(217, 119, 6);"></path>
	<path class="st0" d="M453.406,47.281c0,26.094-49.719,47.266-111.031,47.266c-61.328,0-111.031-21.172-111.031-47.266
		C231.344,21.156,281.047,0,342.375,0C403.688,0,453.406,21.156,453.406,47.281z" style="fill: rgb(217, 119, 6);"></path>
	<path class="st0" d="M453.375,357.75v11.75c0,26.125-49.719,47.281-110.938,47.281c-14.391,0-28.047-1.156-40.625-3.281V366
		c11.844,2.031,25.391,3.406,40.625,3.406c61.219,0,96.016-21.469,96.016-21.469c3.266-1.484,7.094-1.063,10.156,0.844
		C451.594,350.781,453.375,354.172,453.375,357.75z" style="fill: rgb(217, 119, 6);"></path>
	<path class="st0" d="M453.375,277.484v11.75c0,26.125-49.719,47.266-110.938,47.266c-14.391,0-28.047-1.156-40.625-3.266v-47.594
		c11.844,2,25.391,3.375,40.625,3.375c61.219,0,96.016-21.453,96.016-21.453c3.266-1.375,7.094-1.063,10.156,0.938
		C451.594,270.5,453.375,273.781,453.375,277.484z" style="fill: rgb(217, 119, 6);"></path>
	<path class="st0" d="M453.375,197.125v11.75c0,26.125-49.719,47.266-110.938,47.266c-14.391,0-28.047-1.172-40.625-3.297v-47.578
		c11.844,2.016,25.391,3.375,40.625,3.375c61.219,0,96.016-21.469,96.016-21.469c3.266-1.375,7.094-1.047,10.156,0.953
		C451.594,190.141,453.375,193.516,453.375,197.125z" style="fill: rgb(217, 119, 6);"></path>
	<path class="st0" d="M453.375,116.75v11.719c0,26.125-49.719,47.281-110.938,47.281c-14.391,0-28.047-1.156-40.625-3.281v-30.031
		c0-6.563-1.375-12.594-4.016-18.188c12.703,2.438,27.594,4.125,44.641,4.125c52.234,0,85.25-15.656,93.781-20.188
		c1.5-0.875,2.234-1.281,2.234-1.281c3.266-1.484,7.094-1.063,10.156,0.844c1.375,0.938,2.531,2.125,3.281,3.594
		C452.844,112.938,453.375,114.844,453.375,116.75z" style="fill: rgb(217, 119, 6);"></path>
	<path class="st0" d="M280.672,142.469c0,26.094-49.719,47.25-111.031,47.25c-61.344,0-111.047-21.156-111.047-47.25
		c0-26.125,49.703-47.281,111.047-47.281C230.953,95.188,280.672,116.344,280.672,142.469z" style="fill: rgb(217, 119, 6);"></path>
</g>
</svg>
