<?xml version="1.0" encoding="UTF-8"?>
<svg version="1.1" xmlns="http://www.w3.org/2000/svg" width="3216" height="735">
<path d="M0 0 C1.0466394 -0.00307895 1.0466394 -0.00307895 2.11442304 -0.0062201 C4.44003981 -0.01185046 6.76559661 -0.01043779 9.09121895 -0.00901413 C10.78058856 -0.01160006 12.46995756 -0.01461385 14.15932572 -0.01801753 C18.79254979 -0.02606429 23.42575834 -0.02787581 28.05898857 -0.028615 C33.05992483 -0.03046965 38.06085312 -0.03801913 43.06178474 -0.04475021 C53.99398804 -0.05831835 64.92618765 -0.06435611 75.85839796 -0.06876087 C82.68962843 -0.07152631 89.5208575 -0.07576426 96.35208702 -0.08026505 C115.279666 -0.09245658 134.20724384 -0.10275557 153.13482666 -0.10614014 C154.95114537 -0.10646949 154.95114537 -0.10646949 156.80415738 -0.10680549 C158.01787794 -0.10702377 159.23159849 -0.10724204 160.48209846 -0.10746694 C162.94141507 -0.1079104 165.40073168 -0.10835696 167.86004829 -0.10880661 C169.07994537 -0.10902804 170.29984244 -0.10924947 171.55670609 -0.10947761 C191.3089925 -0.11342288 211.06124195 -0.13086914 230.8135141 -0.15416613 C251.11113849 -0.1779123 271.40874437 -0.1903435 291.70638287 -0.19150805 C303.09528054 -0.19242307 314.48413008 -0.19813145 325.87301445 -0.21632767 C335.57403486 -0.23177287 345.27499227 -0.23682318 354.97602265 -0.22858956 C359.92000621 -0.22469845 364.86386306 -0.2255369 369.80783081 -0.23964691 C374.34576407 -0.25247887 378.88347662 -0.25110776 383.42140998 -0.2390562 C385.05136133 -0.23711514 386.68132882 -0.24010274 388.31125759 -0.24890056 C402.63533241 -0.32123808 417.1617702 0.9761444 430.77215767 5.75642776 C431.50531197 6.01021194 432.23846626 6.26399612 432.99383736 6.52547073 C451.45849604 13.23231127 465.24582669 25.02585406 478.32562447 39.35750198 C482.30988781 43.70591024 486.4043151 47.9074857 490.61590767 52.03377151 C491.14185524 52.55095749 491.66780281 53.06814346 492.20968819 53.60100174 C495.37842154 56.71523608 495.37842154 56.71523608 498.56848335 59.80757523 C519.44936586 79.91571457 531.25924211 105.74935357 531.99266124 134.90605843 C532.05573731 139.79609018 532.05067051 144.68471081 532.03534126 149.57503128 C532.03941626 151.78174981 532.0447633 153.98846629 532.05127144 156.19517899 C532.06485252 162.14452994 532.05968143 168.09372334 532.05013418 174.04307675 C532.04247521 180.31544587 532.04960168 186.58780256 532.05429268 192.86017227 C532.06008609 204.07886747 532.05081693 215.29749866 532.03551467 226.51617878 C532.02216387 236.61477032 532.0244019 246.7132581 532.03827095 256.81184769 C532.05446586 268.6090636 532.06022424 280.40621917 532.05143416 292.2034449 C532.04680969 298.4215915 532.04598432 304.63966731 532.05604362 310.85780907 C532.18900457 406.2310265 513.04656271 499.91964745 447.64715767 573.13142776 C447.17600533 573.65897659 446.70485298 574.18652542 446.21942329 574.73006058 C436.32142623 585.74472086 426.07469699 596.68543145 414.64715767 606.13142776 C413.84616646 606.80310989 413.84616646 606.80310989 413.02899361 607.48836136 C393.09178141 624.18084822 371.5432196 638.61944425 348.68817329 651.02058792 C347.30831922 651.77158505 345.93208531 652.5292662 344.55926704 653.29304886 C276.28960355 691.26377844 196.00708067 707.76764523 118.77215767 713.88142776 C118.03020149 713.94059372 117.28824532 713.99975967 116.52380562 714.06071854 C93.84349989 715.83405104 71.16680892 716.2942605 48.42396307 716.29868484 C46.32650024 716.2994074 44.22904353 716.30156336 42.13158226 716.30418205 C34.77560461 716.31334471 27.41964475 716.31752709 20.06366158 716.3167305 C13.26286479 716.3161269 6.46214657 716.32675723 -0.33863032 716.34247416 C-6.23822634 716.35561147 -12.13779677 716.36091206 -18.03740728 716.36027509 C-21.53520603 716.36002263 -25.03293403 716.36273459 -28.53071785 716.37345314 C-32.42409344 716.38506847 -36.31736249 716.38034952 -40.21075249 716.37434769 C-41.33830956 716.37996719 -42.46586662 716.3855867 -43.62759209 716.3913765 C-77.90337456 716.25805938 -98.53079669 700.3359693 -121.7378521 677.06209183 C-124.03859112 674.75818139 -126.35240096 672.46797947 -128.66729546 670.17830276 C-155.60425059 643.3607399 -167.50162269 615.28623123 -167.72784233 577.19392776 C-167.5392994 545.41158839 -160.37694023 514.56906717 -137.25054741 491.46834183 C-120.36597646 475.48091811 -97.98683568 471.99216701 -75.63946342 471.97371292 C-74.27285922 471.96903376 -72.90625654 471.96388842 -71.53965569 471.9583168 C-68.60640804 471.94709132 -65.67317022 471.93862925 -62.73990822 471.93219757 C-58.05735225 471.92138762 -53.37486537 471.90109774 -48.69235039 471.87907791 C-35.37869326 471.81762588 -22.06503807 471.76379393 -8.75127983 471.73006058 C115.12091577 472.773201 115.12091577 472.773201 225.64715767 423.13142776 C226.46990181 422.48802444 226.46990181 422.48802444 227.30926704 421.83162308 C263.39409253 393.29795978 280.40910427 350.90262741 285.64715767 306.13142776 C287.23304313 285.51491684 287.22525743 264.80453967 287.64715767 244.13142776 C232.53715767 244.13142776 177.42715767 244.13142776 120.64715767 244.13142776 C120.31715767 245.78142776 119.98715767 247.43142776 119.64715767 249.13142776 C109.1605218 278.58841741 91.67845614 306.25036411 71.64715767 330.13142776 C70.75097466 331.21837914 69.85514954 332.30562567 68.95965767 333.39314651 C56.67176049 348.20820203 43.48296868 362.82556466 28.64715767 375.13142776 C28.10639595 375.58598343 27.56563423 376.04053909 27.00848579 376.50886917 C1.6791873 397.75733624 -26.2568814 415.3319868 -58.35284233 424.13142776 C-59.49881889 424.47174026 -60.64479546 424.81205276 -61.82549858 425.16267776 C-85.34901562 431.10546102 -112.52796303 428.88489405 -133.59771538 416.56135941 C-137.24675973 414.27704588 -140.50981444 411.70266166 -143.75518608 408.88142776 C-144.64581749 408.11154778 -144.64581749 408.11154778 -145.55444145 407.32611465 C-152.63529457 401.12088233 -159.31391822 394.50655807 -165.95879936 387.84114456 C-168.10581556 385.69095013 -170.26590989 383.55451319 -172.42706108 381.41853714 C-183.22606298 370.67168714 -193.07791825 359.79303857 -200.10284233 346.13142776 C-200.78914726 344.80691605 -200.78914726 344.80691605 -201.48931694 343.45564651 C-208.05326457 330.27414899 -211.86225564 315.76627894 -213.35284233 301.13142776 C-213.46241264 300.11564651 -213.57198296 299.09986526 -213.68487358 298.05330276 C-216.58787401 266.62348483 -212.66426008 236.4561569 -192.19659233 211.38533401 C-186.92276824 205.20964208 -181.13147827 199.90527308 -174.66534233 195.00642776 C-173.57926689 194.17619095 -173.57926689 194.17619095 -172.47125053 193.32918167 C-166.8386953 189.09145128 -160.99590503 185.27103155 -155.04034233 181.50642776 C-146.96174943 176.372684 -140.03292562 171.00237057 -133.35284233 164.13142776 C-132.48530327 163.24970901 -131.61776421 162.36799026 -130.72393608 161.45955276 C-109.12571659 138.64128118 -100.19793516 110.95528418 -93.14581108 81.02205276 C-86.71684915 53.9675859 -75.27063083 29.42358764 -51.04034233 13.94392776 C-35.51592454 4.77285552 -18.05202604 0.01820939 0 0 Z M-40.03252983 53.69392776 C-50.92343411 65.13487771 -54.05231779 78.26857813 -57.10284233 93.31892776 C-61.22478609 113.52092224 -67.23528511 133.10038735 -77.35284233 151.13142776 C-78.00774978 152.34819748 -78.66138896 153.56565065 -79.31377983 154.78377151 C-85.35275235 165.88513184 -92.72013156 175.63064076 -101.30987358 184.87752151 C-102.72836843 186.44247663 -104.08882269 188.06123502 -105.39971733 189.71736526 C-113.45769791 199.67702926 -125.41247065 207.46099729 -136.29034233 214.06892776 C-153.86299188 224.79733729 -169.48402582 237.34180784 -175.45049858 257.91658401 C-180.96066901 283.51965497 -177.47799297 312.87251429 -163.35284233 335.13142776 C-156.71235181 344.81626925 -145.87597782 351.42680067 -134.42315483 353.71736526 C-114.99692902 356.33718707 -98.55252095 350.31679609 -81.35284233 342.13142776 C-80.67366753 341.8104512 -79.99449272 341.48947464 -79.29473686 341.15877151 C-58.32051021 331.06755286 -39.08459442 316.64107628 -22.16143608 300.75252151 C-19.53847422 298.30466698 -16.86283232 295.93390743 -14.16534233 293.56892776 C-9.16961903 289.07436779 -4.73892931 284.21546829 -0.35284233 279.13142776 C0.90979439 277.70056839 0.90979439 277.70056839 2.19793892 276.24080276 C13.30765557 263.52192452 23.18011848 249.74088817 31.64715767 235.13142776 C32.02404732 234.49898148 32.40093697 233.86653519 32.78924751 233.21492386 C42.48434153 216.91077983 50.00425577 199.4104174 55.67157173 181.30696487 C57.00702714 177.21961447 58.12759351 174.64641293 61.64715767 172.13142776 C65.06082889 171.52869125 68.44417473 171.60102019 71.90266609 171.63695145 C72.9575236 171.63212262 74.01238111 171.62729378 75.099204 171.62231863 C78.64546727 171.61101743 82.1910143 171.62839038 85.73724556 171.64558792 C88.2748096 171.64344283 90.81237269 171.63956629 93.34993172 171.63408279 C99.53346334 171.62538064 105.7167276 171.63528348 111.90023024 171.6537834 C119.09796672 171.67454436 126.29565688 171.67441121 133.49341767 171.67343824 C146.33352788 171.67243684 159.17353848 171.69076467 172.01361275 171.71980667 C184.47945152 171.74798771 196.94520262 171.76214798 209.41107368 171.7608223 C210.17897144 171.76074238 210.9468692 171.76066247 211.73803658 171.76058014 C212.5045934 171.76049943 213.27115022 171.76041872 214.06093603 171.76033556 C228.24447353 171.7589566 242.42797371 171.77073113 256.61149912 171.788642 C261.63156077 171.79467971 266.65161557 171.79680171 271.67168045 171.7977066 C278.42430938 171.7992117 285.176833 171.81188167 291.92943573 171.83203888 C294.41312404 171.83789705 296.89682301 171.84033797 299.38051796 171.83918381 C302.75998917 171.83820738 306.1391981 171.84946445 309.51863289 171.86400223 C310.51103055 171.86090502 311.5034282 171.85780782 312.52589852 171.85461676 C313.42812092 171.86106565 314.33034333 171.86751455 315.25990582 171.87415886 C316.04034113 171.87556771 316.82077644 171.87697656 317.6248613 171.8784281 C319.64715767 172.13142776 319.64715767 172.13142776 322.64715767 174.13142776 C323.59625453 176.97871835 323.77478462 178.73808066 323.78087044 181.68980789 C323.78513542 182.6254306 323.78940041 183.56105331 323.79379463 184.52502823 C323.79334145 185.55030121 323.79288826 186.57557419 323.79242134 187.63191605 C323.79745926 189.25482811 323.79745926 189.25482811 323.80259895 190.91052628 C323.81213594 194.50760917 323.81405478 198.10464548 323.81512642 201.70174026 C323.81834188 204.21589044 323.82170617 206.73004043 323.82521248 209.24419022 C323.83121392 214.53538393 323.83309468 219.82656043 323.8324604 225.11775589 C323.83180097 231.82894062 323.84589943 238.54000087 323.86323261 245.25116539 C323.87448363 250.45924207 323.87637549 255.66729389 323.87585068 260.87538147 C323.87701552 263.34437171 323.88135096 265.81336291 323.88918304 268.282341 C324.06661286 330.10270474 311.96850308 388.2092626 269.64715767 435.13142776 C268.97168892 435.88037308 268.29622017 436.62931839 267.60028267 437.40095901 C212.98952456 494.69557917 120.82961785 506.85901959 45.64715767 509.13142776 C36.68629613 509.29591719 27.72373171 509.30911352 18.76159477 509.33065796 C14.35460625 509.341559 9.94768857 509.3618463 5.54074287 509.38377762 C-6.9722557 509.4450064 -19.48524232 509.49981407 -31.99835014 509.53279495 C-38.94980588 509.5511941 -45.90113469 509.58016907 -52.85249698 509.62079966 C-56.51177405 509.64172784 -60.17089257 509.65730712 -63.83023262 509.65960693 C-67.90191204 509.66217091 -71.97314747 509.68771237 -76.04473686 509.71492386 C-77.23454659 509.71191772 -78.42435631 509.70891159 -79.65022087 509.70581436 C-91.54807168 509.82358417 -103.71959036 512.3762582 -112.85284233 520.54158401 C-130.15764982 538.88287737 -131.01902613 564.17595259 -130.4890728 587.90535355 C-129.80888815 604.01280872 -124.62755706 620.63094014 -112.60284233 631.88142776 C-101.4429009 641.04320825 -89.60543253 642.43501458 -75.62017632 642.39021683 C-74.25206632 642.39293249 -72.88395778 642.39649663 -71.51585197 642.40083694 C-67.81597041 642.40991473 -64.1162011 642.40643052 -60.4163177 642.40007877 C-56.50486205 642.39497124 -52.59341523 642.39972547 -48.68195915 642.4028511 C-42.09070964 642.40648691 -35.49950495 642.40171213 -28.90826225 642.39216995 C-21.37706818 642.38139016 -13.84598332 642.38473522 -6.3147921 642.39582276 C0.21068559 642.40503272 6.73613119 642.40611243 13.26161331 642.40094543 C17.13131697 642.39788606 21.00097026 642.39724133 24.87067032 642.4040184 C52.87796601 642.44632941 80.68541433 641.16062186 108.52215767 637.88142776 C109.89969215 637.72186096 109.89969215 637.72186096 111.30505562 637.55907059 C198.27442029 627.41230341 287.34558124 600.60453471 353.64715767 541.13142776 C354.42132027 540.44185989 354.42132027 540.44185989 355.21112251 539.73836136 C365.66474881 530.40393864 375.79725541 520.81377319 384.51825142 509.81502151 C385.89818968 508.0755397 387.30578621 506.35750857 388.74481392 504.66658401 C439.89145263 444.42308398 458.81556632 363.70441234 458.79242134 286.32991409 C458.79542135 284.30088617 458.79882578 282.27185881 458.80259895 280.24283218 C458.81135244 274.78439217 458.81377323 269.32596788 458.81441474 263.86752152 C458.81512959 260.44827823 458.81727197 257.02903884 458.81991196 253.60979652 C458.82913308 241.65679931 458.83325046 229.70381318 458.8324604 217.75081253 C458.83185882 206.64502022 458.84243478 195.53927635 458.85820407 184.4334963 C458.87130738 174.86103712 458.87664321 165.28859374 458.87600499 155.71612567 C458.87575105 150.01499671 458.87854532 144.313911 458.88918304 138.61279106 C458.89891252 133.25364969 458.89891016 127.89459253 458.89166641 122.53544807 C458.89062695 120.57883073 458.89294515 118.62220799 458.89902687 116.66559982 C458.96341385 94.50194731 457.2382801 72.51106255 441.39715767 55.38142776 C422.13278182 37.48696309 397.20265286 36.96431028 372.48004341 37.00444412 C370.90623867 37.00328888 369.3324342 37.00169867 367.75863028 36.99971688 C363.47747266 36.99557889 359.19633761 36.99758898 354.91517997 37.0007031 C350.28116507 37.00297971 345.64715387 36.99946639 341.01313972 36.99672318 C331.95226915 36.99229059 322.8914069 36.99323075 313.83053601 36.99613582 C306.46260073 36.99839974 299.09466778 36.99869809 291.72673225 36.997612 C290.15015809 36.99738215 290.15015809 36.99738215 288.54173395 36.99714766 C286.40614593 36.99682791 284.27055791 36.9965037 282.13496989 36.99617507 C262.13784677 36.99332763 242.14072825 36.99659574 222.14360589 37.00197543 C205.00758048 37.0064428 187.87156186 37.00566666 170.73553658 37.00105667 C150.80701858 36.9956979 130.8785046 36.99360225 110.94998598 36.99666893 C108.82251835 36.99698746 106.69505072 36.99730183 104.56758308 36.997612 C103.52099257 36.99776628 102.47440206 36.99792055 101.39609668 36.9980795 C94.04215553 36.99894074 86.68821695 36.99749024 79.3342762 36.99513245 C70.36494419 36.99231978 61.39562093 36.99310359 52.42628992 36.99841319 C47.85532105 37.00103044 43.28436672 37.00208896 38.71339798 36.99876404 C34.5201431 36.99576013 30.3269161 36.99746129 26.13366371 37.00274159 C24.62578008 37.00384844 23.11789404 37.00331365 21.61001199 37.0008658 C-0.69724703 36.96746236 -22.94240676 37.4074155 -40.03252983 53.69392776 Z " fill="#04394B" transform="translate(1849.3528423309326,17.868572235107422)"/>
<path d="M0 0 C2.01174635 -0.00302644 4.02349155 -0.00691837 6.03523475 -0.01159257 C11.52253037 -0.02181794 17.00976026 -0.01970475 22.49706113 -0.01541197 C28.43112276 -0.01293475 34.36516896 -0.02197127 40.29922485 -0.02944946 C51.90935994 -0.04217119 63.51947329 -0.04399903 75.12961402 -0.0416492 C84.57175137 -0.03981181 94.01388194 -0.04158548 103.45601845 -0.04587364 C104.81576114 -0.04647606 106.17550383 -0.04707726 107.53524652 -0.04767724 C109.58461864 -0.04858457 111.63399075 -0.04949324 113.68336285 -0.0504096 C132.72184746 -0.05883141 151.76032952 -0.06318019 170.79881573 -0.05900288 C171.87394067 -0.05876831 171.87394067 -0.05876831 172.97078531 -0.05852901 C176.60300093 -0.05772331 180.23521654 -0.05687754 183.86743214 -0.05601571 C184.58871412 -0.05584462 185.30999609 -0.05567353 186.0531351 -0.05549726 C187.51174049 -0.0551506 188.97034588 -0.05480207 190.42895126 -0.05445167 C213.11580162 -0.04909662 235.80261308 -0.05702191 258.48945618 -0.07548523 C284.01886153 -0.09623793 309.54824279 -0.10692167 335.07765704 -0.10290974 C337.80398706 -0.10251444 340.53031708 -0.10215289 343.25664711 -0.10181236 C343.92786466 -0.10172163 344.5990822 -0.1016309 345.29063967 -0.10153742 C355.38842825 -0.1003753 365.48619237 -0.1069903 375.58397484 -0.11762428 C387.07947287 -0.12956682 398.57491368 -0.13091086 410.07041254 -0.11883412 C415.9282083 -0.11296541 421.78589955 -0.11179015 427.6436882 -0.12383652 C433.01969381 -0.13476303 438.39550852 -0.13151229 443.77150545 -0.11757483 C445.70274733 -0.11494639 447.6340045 -0.11723517 449.56523129 -0.1253107 C488.34195276 -0.27603368 514.89929293 10.71968285 542.50337219 37.94819641 C545.77414122 41.25419814 548.83943649 44.68925955 551.87055969 48.21382141 C556.00194909 52.85941807 560.33706449 57.40739019 565.22602844 61.25679016 C575.97695255 69.99724035 582.65043368 83.7612696 586.56587219 96.82319641 C586.75689514 97.45814026 586.94791809 98.09308411 587.14472961 98.74726868 C590.8680738 112.26782054 590.98074581 125.83028328 590.9515686 139.72914124 C590.95459356 141.78254753 590.95848476 143.8359527 590.96316117 145.8893559 C590.9734056 151.5009773 590.97126843 157.11253457 590.96698058 162.72416115 C590.96450687 168.78839932 590.97353552 174.8526223 590.98101807 180.91685486 C590.99374933 192.78560883 590.99556647 204.65434074 590.9932178 216.52309844 C590.99138162 226.17364272 590.99315158 235.82418037 590.99744225 245.47472382 C590.99804466 246.86364909 590.99864586 248.25257437 590.99924585 249.64149965 C591.00015315 251.73475714 591.00106182 253.82801463 591.0019782 255.92127211 C591.01040192 275.37129104 591.01474746 294.82130748 591.01057148 314.27132797 C591.0104151 315.00381423 591.01025873 315.73630048 591.01009761 316.49098329 C591.00929189 320.20308994 591.00844612 323.91519658 591.00758431 327.62730321 C591.00741322 328.36447286 591.00724214 329.1016425 591.00706586 329.86115062 C591.00671921 331.35188504 591.00637068 332.84261946 591.00602028 334.33335388 C591.00066444 357.52334248 591.00859198 380.71329303 591.02705383 403.90327454 C591.04779633 429.98821348 591.05849225 456.07312887 591.05447835 482.15807652 C591.05408303 484.94251966 591.05372148 487.7269628 591.05338097 490.51140594 C591.05329023 491.19695026 591.0531995 491.88249458 591.05310602 492.58881298 C591.05194285 502.91185176 591.05856695 513.23486666 591.06919289 523.55789948 C591.08127418 535.30641685 591.0824934 547.05489098 591.07040272 558.80341241 C591.06452537 564.79246408 591.06338297 570.78141344 591.07540512 576.77045822 C591.086302 582.26296204 591.08311545 587.7552786 591.06914344 593.2477738 C591.06650696 595.2247822 591.06882968 597.20180547 591.0768793 599.17879924 C591.18784943 628.48946339 585.03120883 654.06305253 564.31587219 675.94819641 C542.02952237 697.28725172 512.70842 700.58853877 483.30340576 700.5146637 C481.28325875 700.51697257 479.26311258 700.52015194 477.24296814 700.52411819 C471.73268418 700.53241615 466.22247009 700.52836379 460.71218598 700.52214575 C454.7537014 700.51760171 448.79522845 700.52461465 442.83674622 700.53010559 C431.85296016 700.5384683 420.86919472 700.53776726 409.88540788 700.53228265 C399.73690716 700.52724035 389.58841452 700.52594335 379.4399128 700.52832794 C378.42794249 700.5285571 378.42794249 700.5285571 377.39552834 700.52879088 C374.65654075 700.52941361 371.91755316 700.53005042 369.17856558 700.53071041 C343.51538829 700.53682043 317.85222504 700.53129403 292.18904992 700.52051662 C269.41499162 700.51102521 246.64095569 700.51187649 223.86689758 700.5214386 C198.24745801 700.53215958 172.62803083 700.53638809 147.00858933 700.53021407 C144.27506483 700.52957269 141.54154033 700.528947 138.80801582 700.52832794 C138.13501059 700.52816979 137.46200536 700.52801163 136.76860602 700.52784869 C126.62859565 700.52557868 116.48859426 700.52822503 106.34858513 700.53328705 C94.81376532 700.53901685 83.27897063 700.53736019 71.74415379 700.52672556 C65.86282021 700.52148131 59.98153195 700.51939086 54.10019875 700.52602386 C48.70973866 700.53201118 43.31936562 700.5286625 37.92891336 700.51806876 C35.98566605 700.51584651 34.04241129 700.5169444 32.09916883 700.52182034 C-0.58566127 700.59750029 -23.80208222 692.99196281 -47.37553406 669.56538391 C-48.29446945 668.65547699 -49.21340485 667.74557007 -50.16018677 666.80809021 C-52.09069402 664.89391925 -54.01690317 662.97553564 -55.9407196 661.05464172 C-57.88848588 659.11118035 -59.8441998 657.1763291 -61.8079071 655.24897766 C-86.13482369 631.36428985 -102.13281856 605.22558771 -102.70756531 570.13960266 C-102.72254162 567.81221987 -102.71922796 565.48624171 -102.70024109 563.15888977 C-102.68415401 560.82699435 -102.70020867 558.49683709 -102.71928406 556.16499329 C-102.73955795 542.29301711 -101.28751566 528.22221999 -96.62162781 515.07319641 C-96.3674408 514.33963928 -96.11325378 513.60608215 -95.85136414 512.85029602 C-88.3426104 492.0321021 -75.16758137 475.21939057 -55.19145203 465.14497375 C-40.65728479 458.31711983 -25.50004147 456.95261785 -9.6232605 457.02018738 C-8.07761433 457.01931334 -6.53196845 457.01755873 -4.98632413 457.01500905 C-0.77427152 457.01057038 3.43767796 457.01849083 7.64971745 457.02856517 C12.20508687 457.03724799 16.76045104 457.03427611 21.31582642 457.03276062 C29.1966469 457.03171481 37.07743412 457.03795954 44.95824623 457.0492363 C56.35240156 457.06552969 67.7465409 457.07070323 79.14070662 457.07321228 C97.62952417 457.07758337 116.11832401 457.09087654 134.60713196 457.1098175 C152.56123264 457.12819149 170.51532847 457.14231761 188.46943665 457.15083313 C189.5884638 457.15136912 190.70749096 457.15190512 191.86042804 457.15245736 C200.61269482 457.1566165 209.3649617 457.16053024 218.11722863 457.16436648 C260.97512607 457.18321446 303.83297916 457.22345566 346.69087219 457.26069641 C346.69087219 387.30069641 346.69087219 317.34069641 346.69087219 245.26069641 C322.89864563 245.28389954 299.10641907 245.30710266 274.59321594 245.33100891 C259.53136669 245.34122649 244.46951957 245.35094927 229.40766907 245.35835266 C221.49482719 245.36226817 213.58198539 245.36630906 205.66914368 245.37055969 C204.1816084 245.37135094 204.1816084 245.37135094 202.66402191 245.37215817 C186.67226317 245.38084714 170.68051887 245.39660946 154.68876868 245.415002 C138.26622693 245.43373191 121.84369272 245.44481967 105.42114073 245.4488734 C95.2947203 245.45161205 85.16834069 245.4602492 75.04193283 245.47652934 C68.08962478 245.4871344 61.13733771 245.49028909 54.18502217 245.48769917 C50.17918385 245.48642334 46.17341664 245.48832279 42.16759109 245.49910736 C38.48997838 245.50893526 34.81248371 245.50927042 31.13486523 245.5024942 C29.19542485 245.50126667 27.25598558 245.50980653 25.31656593 245.51885903 C-4.68353869 245.41816108 -26.17870332 235.6301491 -47.37553406 214.56538391 C-48.75393715 213.20052353 -48.75393715 213.20052353 -50.16018677 211.80809021 C-52.09069402 209.89391925 -54.01690317 207.97553564 -55.9407196 206.05464172 C-57.88848588 204.11118035 -59.8441998 202.1763291 -61.8079071 200.24897766 C-82.75463647 179.68290532 -82.75463647 179.68290532 -89.30912781 167.26069641 C-89.71655212 166.52431946 -90.12397644 165.7879425 -90.54374695 165.0292511 C-98.41877628 150.08304158 -102.37272871 131.79401783 -102.54740906 115.00288391 C-102.55720291 114.2257605 -102.56699677 113.44863708 -102.5770874 112.64796448 C-102.91835214 78.56056558 -98.70587577 47.60645912 -74.00444031 21.85835266 C-53.4359104 2.13279529 -27.14251929 -0.05843543 0 0 Z M-50.99272156 52.03413391 C-65.31455937 69.66673423 -66.9598313 94.99879614 -65.09086609 116.80757141 C-63.13811361 134.26909098 -58.62297489 151.14738335 -44.47319031 162.72944641 C-32.77358211 171.00786954 -20.88817042 171.55707024 -7.03024292 171.52571106 C-5.37127919 171.52928495 -3.71231717 171.53373689 -2.0533579 171.53898764 C2.49063671 171.55087802 7.03455905 171.55047353 11.57856548 171.54805255 C16.48447221 171.54763236 21.39035428 171.55873763 26.29624939 171.56851196 C34.79208309 171.58395288 43.28790021 171.5923734 51.78374672 171.59622192 C64.07161539 171.60197267 76.35943946 171.62056382 88.6472884 171.64266247 C108.59011308 171.67836489 128.53294028 171.70668743 148.4757843 171.72895813 C149.66888207 171.73029312 150.86197984 171.73162811 152.09123208 171.73300356 C161.77474299 171.74378312 171.45825427 171.75420467 181.14176559 171.76460361 C189.61378243 171.77371521 198.0857991 171.78296714 206.55781555 171.79243469 C207.75097465 171.79376543 208.94413376 171.79509618 210.1734492 171.79646724 C230.04842447 171.81887554 249.9233806 171.84905767 269.79833621 171.88482714 C282.06044787 171.90651638 294.32252974 171.92111949 306.58465954 171.9266659 C314.97864499 171.93090437 323.37260202 171.942119 331.76657174 171.95888984 C336.61360709 171.96831861 341.46058927 171.97440021 346.30763435 171.97182655 C350.74052589 171.96952314 355.17330552 171.97629053 359.60617431 171.99040538 C361.21363368 171.99388039 362.82110462 171.99394298 364.42856369 171.99033278 C366.60626314 171.98591767 368.78358639 171.99367498 370.96125507 172.00457001 C372.778873 172.00636127 372.778873 172.00636127 374.63321048 172.00818872 C377.58289198 172.25177919 379.25795286 172.61742333 381.69087219 174.26069641 C382.95849413 176.79594028 382.81739788 178.54741501 382.81950665 181.38664913 C382.82273109 182.47908395 382.82595554 183.57151876 382.82927769 184.69705766 C382.82772909 185.90705244 382.82618049 187.11704721 382.82458496 188.3637085 C382.82685052 189.64145254 382.82911607 190.91919658 382.83145028 192.23566014 C382.83759073 195.79404863 382.83743207 199.35241371 382.83625591 202.9108063 C382.83605247 206.74386055 382.84156521 210.57690716 382.84631348 214.40995789 C382.85463276 221.92384111 382.85736889 229.4377165 382.85792585 236.95160394 C382.85840039 243.05660492 382.860452 249.16160331 382.86362648 255.26660347 C382.87243637 272.56023789 382.87704531 289.85386609 382.87629601 307.14750277 C382.87623607 308.54701873 382.87623607 308.54701873 382.87617493 309.97480774 C382.87613405 310.90895223 382.87609317 311.84309672 382.87605105 312.80554862 C382.87564443 327.95124367 382.88521701 343.09691388 382.89931329 358.24260174 C382.91365979 373.77922182 382.92058444 389.31582976 382.91971952 404.85245663 C382.91938696 413.58108606 382.92215969 422.30968944 382.93289757 431.03831291 C382.94197988 438.46900796 382.94419658 445.89966515 382.93738814 453.33036333 C382.93411147 457.12409957 382.93410734 460.9177631 382.94274139 464.71149254 C382.95199136 468.81795095 382.94586043 472.92423925 382.93811035 477.03070068 C382.94325391 478.23846474 382.94839748 479.44622879 382.95369691 480.69059175 C382.94909811 481.78563432 382.94449932 482.88067688 382.93976116 484.00890255 C382.94008721 485.43179715 382.94008721 485.43179715 382.94041985 486.8834371 C382.69087219 489.26069641 382.69087219 489.26069641 380.69087219 492.26069641 C377.28256347 493.39679932 374.68805512 493.38791699 371.09268284 493.39098167 C370.0773265 493.39389682 370.0773265 493.39389682 369.04145792 493.39687085 C366.75673604 493.40221585 364.47207414 493.40042496 362.18734741 493.39872742 C360.53926492 493.40114441 358.89118303 493.40400634 357.24310201 493.40727675 C352.70101326 493.41504733 348.1589396 493.4166501 343.61684501 493.41732788 C338.72295728 493.41916457 333.82907845 493.42676988 328.93519592 493.43380737 C320.44909844 493.44534454 311.96300296 493.45358298 303.4769001 493.45992661 C290.06077894 493.4702453 276.64468261 493.49080786 263.22857666 493.51304626 C258.63966855 493.52052649 254.05076033 493.52794018 249.46185207 493.53533363 C248.31492251 493.5371842 247.16799294 493.53903477 245.98630794 493.54094141 C232.92355769 493.56187844 219.86080469 493.58070093 206.79804993 493.59858704 C205.60365763 493.60022522 204.40926534 493.6018634 203.17867934 493.60355122 C183.83590049 493.6298195 164.49311973 493.64847133 145.15033061 493.66517894 C125.29357735 493.68260748 105.43686151 493.71146268 85.58013815 493.75006831 C73.33225844 493.77345473 61.08443974 493.78746167 48.83653753 493.78939594 C40.43775003 493.79150742 32.03902313 493.80445426 23.64026285 493.82587527 C18.7963076 493.83788769 13.95247268 493.84506669 9.10850334 493.83916283 C4.66873527 493.83384862 0.22921216 493.84240711 -4.21051509 493.86171921 C-5.8115641 493.8662757 -7.41263722 493.86585054 -9.01368117 493.85977082 C-24.60362782 493.80588246 -37.53787606 496.04143141 -49.49662781 506.76069641 C-60.21807322 518.19690486 -64.81606625 535.91415557 -65.30912781 551.26069641 C-65.33490906 551.94051575 -65.36069031 552.62033508 -65.38725281 553.320755 C-66.07330803 573.75233713 -64.9191276 597.71488959 -50.20365906 613.52241516 C-36.6147588 626.17576291 -20.89888619 626.70749602 -3.21958923 626.64837646 C-1.18298129 626.65255365 0.85362432 626.65803327 2.89022565 626.66469628 C8.46464779 626.67911927 14.03892168 626.67491594 19.61335182 626.66752946 C25.63396712 626.66279227 31.6545506 626.6753126 37.67515564 626.68554688 C48.7812749 626.70173757 59.88735545 626.70418235 70.9934816 626.69924188 C81.25709179 626.69467867 91.52068449 626.6952914 101.78429413 626.70108223 C103.16286282 626.70183911 104.54143152 626.70259509 105.92000021 626.70335018 C107.99758226 626.70449541 110.0751643 626.7056453 112.15274634 626.70680942 C131.46058544 626.7175096 150.76841873 626.72224472 170.07625961 626.71433926 C170.80359689 626.71404208 171.53093418 626.71374491 172.28031198 626.71343873 C178.18618047 626.71098999 184.09204889 626.7083783 189.9979173 626.7057546 C213.02645601 626.6956554 236.05492178 626.7040033 259.08345032 626.72724915 C284.97938378 626.75334739 310.87527334 626.76616268 336.77122045 626.7590614 C339.53487602 626.75834538 342.2985316 626.75767099 345.06218719 626.75702095 C345.74262676 626.75685114 346.42306632 626.75668133 347.12412527 626.75650638 C357.37582971 626.75420765 367.62749326 626.76216007 377.87918854 626.77531242 C389.54511342 626.79025282 401.21095941 626.79065514 412.87688538 626.77324151 C418.82519754 626.76473814 424.77332751 626.76256596 430.7216301 626.77789307 C436.17468711 626.7917697 441.62740638 626.78693851 447.08044401 626.76765383 C449.04536275 626.76390264 451.01030873 626.76679013 452.97520313 626.77726548 C470.91519494 626.86605113 485.84372539 624.46256728 500.94087219 614.01069641 C510.77000445 604.18156416 516.76965317 591.20681401 516.82766199 577.24209183 C516.82589252 576.45516585 516.82412305 575.66823987 516.82229996 574.85746765 C516.82435259 574.00971797 516.82640522 573.16196828 516.82852006 572.28852922 C516.83419532 569.43467331 516.83273215 566.58086558 516.83131409 563.727005 C516.83389743 561.66542919 516.8369105 559.60385387 516.84031749 557.54227924 C516.84839453 551.86648299 516.85017746 546.19069938 516.85091496 540.51489806 C516.85276431 534.39743062 516.86031111 528.27996975 516.86705017 522.1625061 C516.88134836 508.08213129 516.887161 494.00176063 516.89174212 479.9213803 C516.89407849 472.96172194 516.89768121 466.0020644 516.90143749 459.04240669 C516.91427356 435.21384949 516.92499213 411.38529275 516.92844009 387.55673218 C516.92866173 386.060947 516.92888351 384.56516182 516.92910545 383.06937665 C516.92932609 381.56999536 516.92954657 380.07061408 516.92976689 378.5712328 C516.93020944 375.56326103 516.93065656 372.55528927 516.93110657 369.5473175 C516.93121596 368.80151561 516.93132535 368.05571372 516.93143805 367.28731178 C516.93506757 343.1121738 516.95098334 318.93706583 516.97429693 294.76193935 C516.99890603 269.19662648 517.01261346 243.63133076 517.01380801 218.06600571 C517.01397946 215.25820159 517.01419489 212.45039749 517.01444244 209.64259338 C517.0145261 208.6055693 517.0145261 208.6055693 517.01461144 207.54759523 C517.01576102 196.43240895 517.02677526 185.31725351 517.0413295 174.20207763 C517.05571281 163.0239032 517.05866915 151.84576764 517.05088952 140.66758293 C517.04698364 134.61440243 517.04790971 128.56132548 517.06194687 122.50815773 C517.07468932 116.9625158 517.07348506 111.41705517 517.06135616 105.87141347 C517.05939976 103.8693243 517.0624749 101.86722228 517.07120052 99.86515117 C517.14544901 81.67143407 515.47160303 65.49650869 502.62837219 51.38569641 C487.15991415 37.17143767 467.08304811 36.80463806 447.307724 36.88647461 C445.28813734 36.88372882 443.26855211 36.87967231 441.24897039 36.87443095 C435.74040112 36.86391191 430.23199572 36.87192878 424.72343373 36.88318145 C418.76708757 36.89206435 412.8107619 36.88356831 406.85441589 36.87731934 C395.87590406 36.86840012 384.89744931 36.87297413 373.91894119 36.88448315 C363.77842382 36.89504079 353.63792502 36.8995559 343.49740219 36.89818764 C342.82341604 36.89810361 342.1494299 36.89801958 341.45501993 36.897933 C338.71880309 36.89758073 335.98258626 36.89719671 333.24636943 36.89676742 C307.61229436 36.89280791 281.97825212 36.90549551 256.34418644 36.92629398 C233.58360076 36.94467418 210.82304652 36.95047258 188.06245422 36.94502258 C186.60003378 36.94467615 185.13761335 36.94433005 183.67519291 36.94398429 C182.95218845 36.9438133 182.22918399 36.9436423 181.4842703 36.94346613 C177.84454297 36.94261254 174.20481562 36.94178876 170.56508827 36.94099712 C169.84697821 36.94084004 169.12886815 36.94068296 168.38899717 36.94052112 C149.34903447 36.93652993 130.30907478 36.94200791 111.2691139 36.95050842 C109.22022295 36.95141542 107.171332 36.95232107 105.12244105 36.95322365 C103.76336323 36.95382475 102.40428542 36.95443337 101.04520761 36.95504956 C91.57948479 36.95926713 82.11376791 36.9598508 72.64804446 36.95794406 C60.45295605 36.95549967 48.25789698 36.95979957 36.06281669 36.97515406 C30.18412969 36.98239619 24.30548668 36.98647653 18.42679596 36.98191071 C13.04461281 36.97783215 7.66252047 36.98300596 2.28035109 36.99553678 C0.33450221 36.99846268 -1.61135524 36.99803473 -3.55720191 36.99389371 C-21.56861989 36.95904579 -37.84746096 38.18738609 -50.99272156 52.03413391 Z " fill="#04394B" transform="translate(102.30912780761719,24.739303588867188)"/>
<path d="M0 0 C0.83383209 -0.00570007 1.66766418 -0.01140015 2.52676392 -0.01727295 C4.2865474 -0.02666896 6.04634804 -0.03323529 7.80615234 -0.03710938 C10.43490385 -0.04672266 13.06284063 -0.0777591 15.69140625 -0.109375 C43.53179389 -0.28399727 72.56116796 6.07743142 93.04443359 26.10253906 C96.00465404 29.03134602 98.95057746 31.97261457 101.86303711 34.94897461 C105.78011607 38.94658223 109.78542219 42.72645421 114.02539062 46.37817383 C135.29054446 65.07020404 150.89697161 85.20252697 153.26784895 114.23970862 C153.51674522 118.9369598 153.49268122 123.63062811 153.46232605 128.33204651 C153.46363856 129.877021 153.46627313 131.42199482 153.47009355 132.96696514 C153.47672305 137.1586283 153.4649115 141.35005647 153.44975936 145.54168975 C153.43669284 150.0819916 153.44119589 154.62228228 153.44346619 159.16259766 C153.44503227 167.01117098 153.43569302 174.85966896 153.41875267 182.70822334 C153.39427646 194.05562791 153.38654862 205.40299639 153.3827887 216.7504245 C153.37623768 235.16493576 153.35631329 253.57940695 153.32788086 271.99389648 C153.30030525 289.87214967 153.27908884 307.75039193 153.26635742 325.62866211 C153.26517517 327.2842257 153.26517517 327.2842257 153.26396903 328.97323502 C153.26005365 334.5107246 153.25626259 340.04821426 153.25253332 345.58570397 C153.22147947 391.45820539 153.16868062 437.33066312 153.1015625 483.203125 C153.7615625 482.873125 154.4215625 482.543125 155.1015625 482.203125 C157.04419703 481.91154516 158.99374926 481.66556837 160.9453125 481.44140625 C177.96555014 479.39210909 194.49058967 476.56768598 211.1015625 472.203125 C211.98457031 471.97399414 212.86757812 471.74486328 213.77734375 471.50878906 C249.10821895 462.16048914 281.11747436 444.63434817 308.0390625 420.015625 C308.54646973 419.5530127 309.05387695 419.09040039 309.57666016 418.61376953 C351.83888445 379.14963417 371.88617638 316.61987414 374.1015625 260.203125 C374.20176848 256.18784003 374.26023897 252.17241715 374.3125 248.15625 C374.32692139 247.0533815 374.34134277 245.950513 374.35620117 244.81422424 C374.41331742 240.20561566 374.46785681 235.59711657 374.50292969 230.98828125 C374.7384921 202.36338613 377.92291353 176.45190195 399.1015625 155.203125 C399.83890625 154.44257813 400.57625 153.68203125 401.3359375 152.8984375 C423.59172661 131.3148031 456.41485163 126.59139026 486.10546875 126.92578125 C506.36156725 127.48868403 526.02020539 132.26520558 544.0390625 141.515625 C544.68866943 141.8458667 545.33827637 142.1761084 546.00756836 142.51635742 C556.39030364 148.15404767 564.95118298 156.73376686 573.265625 164.99609375 C574.18314545 165.90458572 575.10066589 166.8130777 576.04598999 167.74909973 C577.97050827 169.65730696 579.89075149 171.56970376 581.80859375 173.48461914 C583.74952666 175.4212423 585.69842394 177.34923789 587.65527344 179.26977539 C610.70911142 201.90361419 623.94528928 222.91662327 624.26953125 256.03125 C624.29056911 259.5052711 624.29327133 262.97904903 624.2890625 266.453125 C624.28815613 267.8333786 624.28815613 267.8333786 624.28723145 269.24151611 C624.13198492 357.18488456 608.82847966 444.94124142 499.3515625 607.078125 C498.74989258 607.68446777 498.14822266 608.29081055 497.52832031 608.91552734 C493.21728072 613.21124613 488.72932218 617.25202368 484.1015625 621.203125 C483.46283203 621.74855957 482.82410156 622.29399414 482.16601562 622.85595703 C460.25538479 641.41574569 436.61294891 657.49040552 411.28173828 671.03076172 C409.11563288 672.19555882 406.96566153 673.38648052 404.81640625 674.58203125 C332.61921683 714.26085047 247.77817566 730.13656702 146.80126953 735.38012695 C145.35029956 735.38641743 143.89933111 735.39306632 142.44836426 735.40003967 C137.75204524 735.4207576 133.05572701 735.4314041 128.359375 735.44140625 C126.72528952 735.44546447 125.09120418 735.44958166 123.45711899 735.45375633 C115.78020835 735.47272879 108.10330689 735.48698184 100.42637742 735.4953683 C91.63118579 735.50514242 82.83624568 735.53150017 74.04114258 735.57186919 C67.19388423 735.60219736 60.34669743 735.61685244 53.49937332 735.62014931 C49.43114996 735.62247853 45.36319773 735.63115861 41.29504776 735.65661049 C9.16292284 735.84709932 -16.89910061 732.23559836 -40.80046082 708.76924133 C-41.70291031 707.86699326 -42.6053598 706.96474518 -43.53515625 706.03515625 C-44.50890286 705.06854225 -45.48293379 704.10221459 -46.45722961 703.13615417 C-48.48161537 701.12508982 -50.50011677 699.10833638 -52.51489258 697.08764648 C-55.06615409 694.53049291 -57.63519905 691.99207443 -60.20950603 689.45814991 C-62.22177153 687.47203776 -64.22213808 685.47424772 -66.21955299 683.47321129 C-67.6100046 682.08521919 -69.01144035 680.70825753 -70.41325378 679.33174133 C-88.19359427 661.36008637 -95.08165466 638.48277561 -95.02986526 613.58486176 C-95.03294422 612.1890814 -95.03294422 612.1890814 -95.03608537 610.76510346 C-95.04173015 607.65373226 -95.04030124 604.54240567 -95.03887939 601.43103027 C-95.04146447 599.17498744 -95.04447803 596.91894506 -95.0478828 594.66290331 C-95.05593923 588.46799316 -95.05774161 582.2730946 -95.05848026 576.07817984 C-95.06014282 570.08149232 -95.0664625 564.08481073 -95.07255867 558.08812652 C-95.08859598 542.02812605 -95.09451936 525.96812656 -95.09930742 509.90811953 C-95.10164563 502.30638831 -95.10524852 494.70465785 -95.1090028 487.10292722 C-95.12183624 461.0665413 -95.13255564 435.0301558 -95.1360054 408.99376678 C-95.13622703 407.36027353 -95.13644882 405.72678028 -95.13667075 404.09328702 C-95.13689139 402.45591754 -95.13711187 400.81854805 -95.1373322 399.18117857 C-95.13777475 395.89650186 -95.13822186 392.61182515 -95.13867188 389.32714844 C-95.13878127 388.51274352 -95.13889066 387.69833861 -95.13900336 386.85925476 C-95.14263303 360.45922422 -95.15855075 334.05922116 -95.18186224 307.65920114 C-95.20648025 279.72835119 -95.22017915 251.79751694 -95.22137332 223.86665583 C-95.22154477 220.79821427 -95.22176019 217.72977273 -95.22200775 214.66133118 C-95.22206352 213.90582941 -95.22211929 213.15032764 -95.22217675 212.37193188 C-95.22332546 200.2349401 -95.23433209 188.09797662 -95.24889481 175.96099439 C-95.26328942 163.75264762 -95.26648009 151.54433697 -95.25845483 139.33598405 C-95.25440219 132.72736895 -95.25545432 126.11882852 -95.26951218 119.51021957 C-95.28227987 113.45258278 -95.28102828 107.39511178 -95.26892146 101.33747512 C-95.26696945 99.15373987 -95.27001978 96.96999275 -95.27876583 94.78627414 C-95.36523511 71.72426404 -93.10528906 50.69160926 -77.8984375 32.203125 C-77.1146875 31.213125 -76.3309375 30.223125 -75.5234375 29.203125 C-57.47771805 8.57944563 -26.54397761 0.14514867 0 0 Z M-47.8203125 54.90234375 C-56.10852433 64.07857827 -58.21507615 74.81087275 -58.15291309 86.78291607 C-58.15611957 87.70926998 -58.15932605 88.63562388 -58.16262969 89.59004912 C-58.17091639 92.68726823 -58.16500999 95.7842933 -58.15913391 98.8815155 C-58.1621552 101.12732279 -58.16604457 103.37312906 -58.17072648 105.6189335 C-58.18101821 111.7854462 -58.17882163 117.95190084 -58.17454588 124.11841834 C-58.17233401 130.08753818 -58.17948877 136.05664493 -58.18630614 142.02575966 C-58.20153996 155.74100027 -58.20325178 169.45622241 -58.20078311 183.17146971 C-58.19894966 193.76467361 -58.20071116 204.35787146 -58.20500755 214.9510746 C-58.20560996 216.4736103 -58.20621116 217.99614601 -58.20681116 219.51868171 C-58.20771842 221.81308683 -58.20862709 224.10749195 -58.20954351 226.40189707 C-58.21797236 247.73275348 -58.22230927 269.06360761 -58.21813679 290.39446545 C-58.21798041 291.19847709 -58.21782404 292.00248873 -58.21766292 292.83086435 C-58.21685715 296.9057948 -58.21601138 300.98072524 -58.21514962 305.05565568 C-58.21497853 305.86492998 -58.21480744 306.67420427 -58.21463117 307.50800203 C-58.21428451 309.14455173 -58.21393598 310.78110143 -58.21358558 312.41765113 C-58.20822975 337.8758599 -58.21615517 363.33403402 -58.23461914 388.79223633 C-58.2553464 417.40448157 -58.26606037 446.01670535 -58.26204365 474.62895852 C-58.26164832 477.68133787 -58.26128677 480.73371722 -58.26094627 483.78609657 C-58.26085554 484.53765116 -58.26076481 485.28920575 -58.26067133 486.06353471 C-58.25950647 497.39777005 -58.26614528 508.73198369 -58.27675819 520.06621361 C-58.28882068 532.96157831 -58.29035718 545.85689528 -58.27796803 558.75226071 C-58.27193081 565.33012437 -58.27098485 571.90791371 -58.28297043 578.48577309 C-58.29382275 584.51180012 -58.29073334 590.53765596 -58.27670874 596.56367496 C-58.27406003 598.73927985 -58.27643379 600.91489813 -58.28444461 603.09048989 C-58.3410923 619.62782175 -58.35269668 636.24818975 -46.9296875 649.484375 C-35.54154371 660.54242766 -20.57402806 662.51659045 -5.38500977 662.46191406 C-3.56520348 662.46717102 -3.56520348 662.46717102 -1.70863342 662.47253418 C1.59889318 662.47979257 4.90616701 662.47813498 8.21367908 662.47177601 C11.72066722 662.46665301 15.22764575 662.47142734 18.7346344 662.47454834 C24.64822274 662.47818184 30.56176108 662.47341764 36.4753418 662.46386719 C42.47309645 662.45428958 48.47075147 662.45414053 54.46850586 662.46386719 C100.8262872 662.65399219 100.8262872 662.65399219 147.1015625 660.203125 C148.52500473 660.08970764 148.52500473 660.08970764 149.97720337 659.97399902 C155.17571941 659.55425911 160.35758769 659.04563173 165.5390625 658.453125 C166.27997131 658.37075592 167.02088013 658.28838684 167.78424072 658.20352173 C261.16854703 647.74497855 355.28374648 617.62366372 425.78515625 553.30078125 C427.77681067 551.49720887 429.80178107 549.75206404 431.8515625 548.015625 C440.87710821 540.1481432 449.48988267 531.44474874 457.1015625 522.203125 C457.54258301 521.67589844 457.98360352 521.14867187 458.43798828 520.60546875 C472.24491618 504.0817657 484.41719865 486.90426711 495.1015625 468.203125 C495.60042969 467.33703613 496.09929688 466.47094727 496.61328125 465.57861328 C528.42833062 410.03518037 544.68095749 345.83235151 549.1015625 282.203125 C549.18696289 281.09130859 549.27236328 279.97949219 549.36035156 278.83398438 C550.23956271 266.09645221 550.32180303 253.36352623 550.34179688 240.59912109 C550.35159762 236.81456282 550.38276598 233.03052757 550.4140625 229.24609375 C550.4205863 226.80729483 550.42583921 224.36849211 550.4296875 221.9296875 C550.4420343 220.81485992 550.4543811 219.70003235 550.46710205 218.55142212 C550.42958259 205.23113066 546.63942786 192.11650079 537.35546875 182.2109375 C521.45539099 168.04691676 501.70282134 163.78604001 480.8515625 163.890625 C479.66788086 163.89626465 478.48419922 163.9019043 477.26464844 163.90771484 C459.37673387 164.1548666 440.51915036 167.38551058 427.1015625 180.203125 C426.15023437 181.11191406 426.15023437 181.11191406 425.1796875 182.0390625 C415.5276866 192.14478993 412.83599736 204.88222577 412.7578125 218.4140625 C412.72954067 220.38728911 412.70121846 222.36051499 412.67285156 224.33374023 C412.66161255 225.3536203 412.65037354 226.37350037 412.63879395 227.42428589 C412.57597506 232.74561154 412.47275132 238.06609267 412.3671875 243.38671875 C412.34654236 244.42746048 412.32589722 245.46820221 412.30462646 246.54048157 C411.0759387 304.86617333 397.84517161 363.73164231 364.1015625 412.203125 C363.70662598 412.77224609 363.31168945 413.34136719 362.90478516 413.92773438 C321.51865741 472.78959817 255.06122488 503.58636282 185.83740234 515.95703125 C180.60680628 516.82608858 175.36153938 517.53763664 170.1015625 518.203125 C168.95091309 518.35265625 167.80026367 518.5021875 166.61474609 518.65625 C146.70758901 521.12238827 126.95780403 521.36589758 106.91796875 521.28125 C104.30635714 521.27496465 101.69474406 521.26926398 99.08312988 521.26416016 C92.75590795 521.25054398 86.42874236 521.22975463 80.1015625 521.203125 C80.10096541 520.26395918 80.10036832 519.32479335 80.09975314 518.35716796 C80.06401127 462.69228275 80.00721659 407.02745134 79.92364155 351.3626164 C79.91362411 344.67859345 79.90377536 337.99457025 79.89404297 331.31054688 C79.89307116 330.64541614 79.89209936 329.98028541 79.8910981 329.2949992 C79.85970662 307.74707168 79.84122971 286.19915668 79.82947003 264.65121026 C79.81696942 241.8744051 79.78971067 219.09765437 79.74694943 196.32088494 C79.72181494 182.67975222 79.7084452 169.03871219 79.71013293 155.39755598 C79.71016269 146.04279846 79.69553212 136.68813536 79.66939822 127.33341464 C79.65475339 121.93655886 79.64654852 116.53989671 79.65575981 111.14302444 C79.66405713 106.1979177 79.65386307 101.25319971 79.62922588 96.30815056 C79.62355021 94.52330064 79.62454534 92.73841378 79.63305005 90.9535751 C79.69721698 76.21976163 77.94376159 64.31211458 67.2890625 53.3359375 C50.33607235 37.40832982 24.62550068 36.43768136 2.59228516 37.09814453 C-15.73187299 37.87048211 -34.06524945 42.13322054 -47.8203125 54.90234375 Z " fill="#04394B" transform="translate(925.8984375,-0.203125)"/>
<path d="M0 0 C1.32443619 0.00131424 1.32443619 0.00131424 2.67562866 0.00265503 C41.51591079 0.12970617 67.97428746 11.63422074 95.16798401 38.98956299 C96.69705435 40.53300822 98.22398495 42.0785342 99.75 43.625 C105.62516917 49.57781458 111.4794473 55.45882203 117.84179688 60.89892578 C133.87402286 75.17025062 140.88433075 95.63962608 142.29800975 116.46504521 C142.63166237 122.92360783 142.61478533 129.37429665 142.58229065 135.83944702 C142.57858661 137.34883131 142.57533996 138.85821677 142.57250541 140.36760294 C142.56349254 144.47476683 142.54807313 148.58188448 142.53152263 152.68902397 C142.51476588 157.1332534 142.50407122 161.5774981 142.49261475 166.02174377 C142.47198246 173.7082893 142.44756786 181.39481521 142.42053413 189.08134079 C142.38145415 200.19456508 142.34815637 211.30780087 142.31623887 222.42104776 C142.26429064 240.45454036 142.20771048 258.48801529 142.14819336 276.52148438 C142.09041143 294.03221958 142.03482592 311.54295951 141.98217773 329.05371094 C141.97892802 330.1343122 141.9756783 331.21491347 141.9723301 332.32826023 C141.9560396 337.7496891 141.9397921 343.17111811 141.92356598 348.59254718 C141.7890442 393.52005321 141.64699507 438.44753316 141.5 483.375 C142.69713623 483.17278084 142.69713623 483.17278084 143.91845703 482.96647644 C144.97919434 482.78828873 146.03993164 482.61010101 147.1328125 482.42651367 C148.70119873 482.16241951 148.70119873 482.16241951 150.30126953 481.89299011 C153.32144948 481.40391378 156.34372268 480.96477636 159.375 480.55078125 C211.05223239 473.36953376 260.53002979 455.01548946 298.5 418.375 C299.39976562 417.53839844 300.29953125 416.70179688 301.2265625 415.83984375 C344.90997615 374.10770651 362.09483778 309.32217258 363.56713867 250.70184326 C363.62953581 247.67500889 363.6837244 244.64814717 363.734375 241.62109375 C363.76166435 240.04445198 363.76166435 240.04445198 363.789505 238.43595886 C363.87760019 233.13359344 363.94592225 227.8320205 363.9831543 222.52905273 C364.25476668 196.50667395 369.46245985 174.40092596 387.84765625 154.9375 C411.21628932 132.36044066 443.73081475 126.83278748 475 127.1640625 C517.18280898 128.16547151 545.19544717 147.90822176 574.01000977 176.64477539 C576.18775852 178.81275736 578.37598052 180.96980385 580.56445312 183.12695312 C598.14708031 200.57572175 612.49750668 219.7560468 612.66113281 245.71118164 C612.67059433 246.95403931 612.68005585 248.19689697 612.68980408 249.47741699 C612.69462461 250.82999544 612.69905384 252.18257534 612.703125 253.53515625 C612.71012892 254.95048055 612.71721581 256.36580444 612.72438049 257.78112793 C612.74400476 262.3332558 612.74881913 266.88533421 612.75 271.4375 C612.75044186 272.21029675 612.75088371 272.98309349 612.75133896 273.77930832 C612.75845304 297.42992615 612.42586657 320.87685167 609.5 344.375 C609.3691803 345.45451935 609.3691803 345.45451935 609.23571777 346.55584717 C598.75181428 432.96213663 569.14630602 516.07253941 511.5 582.375 C510.89929687 583.07625 510.29859375 583.7775 509.6796875 584.5 C500.38558798 595.27576756 490.7595659 605.97747203 479.953125 615.2578125 C478.07137176 616.88187341 476.21152288 618.5224446 474.359375 620.1796875 C405.3808089 681.51530557 314.46507215 714.67872419 167.5 734.375 C165.8868541 734.50708107 165.8868541 734.50708107 164.24111938 734.64183044 C148.48028322 735.75503322 132.6707065 735.57936058 116.87890625 735.61328125 C115.25689111 735.61734026 113.63487611 735.62145747 112.01286125 735.62563133 C104.39361914 735.64459596 96.77438626 735.65885168 89.1551252 735.6672433 C80.42899342 735.67702058 71.70311492 735.70338992 62.9770723 735.74374419 C56.18074877 735.77407321 49.38449732 735.78872743 42.58810753 735.79202431 C38.55119728 735.79435301 34.51456032 735.80302641 30.47772408 735.82848549 C9.79268389 735.95223141 -9.55169175 735.79577861 -28.5 726.375 C-29.90378906 725.70791016 -29.90378906 725.70791016 -31.3359375 725.02734375 C-41.21886169 719.84741968 -48.64425148 712.13822428 -56.5 704.375 C-57.56401738 703.33434865 -58.6286724 702.29434898 -59.69384766 701.25488281 C-62.66527753 698.35370494 -65.6257133 695.44165918 -68.57955933 692.52258301 C-69.75757512 691.35956447 -70.9376253 690.19860221 -72.11990356 689.03991699 C-90.82423026 670.67260219 -105.20713432 650.26705462 -105.6276505 622.9641943 C-105.63397084 621.2721156 -105.63487824 619.58001118 -105.63142776 617.88792419 C-105.63450672 616.47697866 -105.63450672 616.47697866 -105.63764787 615.03752917 C-105.64331066 611.8797426 -105.6418615 608.72199974 -105.64044189 605.56420898 C-105.64302594 603.27959328 -105.64603922 600.99497802 -105.6494453 598.71036339 C-105.65751391 592.42726233 -105.65930479 586.14417269 -105.66004276 579.86106706 C-105.66170352 573.7821059 -105.66802176 567.70315108 -105.67412117 561.62419306 C-105.69017068 545.33971494 -105.69608335 529.05523776 -105.70086992 512.77075315 C-105.70320701 505.06451555 -105.70680979 497.35827869 -105.7105653 489.65204167 C-105.72340013 463.26410207 -105.73411917 436.87616287 -105.7375679 410.48822021 C-105.73778953 408.83215459 -105.73801132 407.17608897 -105.73823325 405.52002335 C-105.73845389 403.85999552 -105.73867437 402.1999677 -105.7388947 400.53993988 C-105.73933725 397.20973206 -105.73978437 393.87952423 -105.74023438 390.54931641 C-105.74034377 389.7236203 -105.74045316 388.8979242 -105.74056586 388.047207 C-105.74419564 361.28031831 -105.76011307 334.51345672 -105.78342474 307.74657841 C-105.80803566 279.43602585 -105.82174133 251.12548877 -105.82293582 222.81492519 C-105.82310727 219.70548439 -105.8233227 216.59604359 -105.82357025 213.48660278 C-105.82362602 212.72099111 -105.82368179 211.95537945 -105.82373925 211.16656742 C-105.82488862 198.8598413 -105.83590093 186.55314304 -105.85045731 174.24642632 C-105.86484287 161.86983908 -105.86804768 149.49328746 -105.86001733 137.11669415 C-105.85596115 130.41516861 -105.85703307 123.71374797 -105.87107468 117.01222801 C-105.88382246 110.87196454 -105.88260816 104.73186477 -105.87048396 98.59160149 C-105.86852851 96.3755408 -105.87159834 94.15946847 -105.88032833 91.94342411 C-105.97380487 66.60155384 -101.60652147 44.96708619 -83.33984375 26.12890625 C-72.42449424 15.54386993 -58.32891129 9.18151117 -43.875 5 C-42.64269653 4.64216431 -42.64269653 4.64216431 -41.38549805 4.27709961 C-27.70823286 0.56207136 -14.07745169 -0.03413695 0 0 Z M-56.5 53.375 C-57.14453125 53.99246094 -57.7890625 54.60992187 -58.453125 55.24609375 C-64.62404067 61.6892557 -68.62084415 70.3620256 -68.6276505 79.38460207 C-68.63066647 80.178896 -68.63368244 80.97318993 -68.6367898 81.79155338 C-68.63502033 82.66000515 -68.63325086 83.52845691 -68.63142776 84.4232254 C-68.6334804 85.35285115 -68.63553303 86.28247689 -68.63764787 87.24027312 C-68.64333596 90.37866037 -68.64185838 93.51700399 -68.64044189 96.65539551 C-68.6430245 98.91893613 -68.64603737 101.1824763 -68.6494453 103.44601583 C-68.65753098 109.68467894 -68.65930574 115.92333055 -68.66004276 122.16199827 C-68.661701 128.19368272 -68.66801724 134.22536122 -68.67412117 140.25704237 C-68.69018784 156.42070384 -68.69608546 172.58436437 -68.70086992 188.74803239 C-68.70320546 196.39477011 -68.70680809 204.04150707 -68.7105653 211.6882442 C-68.72340213 237.86385025 -68.73412063 264.03945587 -68.7375679 290.215065 C-68.73778953 291.85852658 -68.73801132 293.50198815 -68.73823325 295.14544973 C-68.73845389 296.79288759 -68.73867438 298.44032545 -68.7388947 300.08776331 C-68.73933725 303.39281877 -68.73978437 306.69787423 -68.74023438 310.00292969 C-68.74034377 310.82239251 -68.74045316 311.64185534 -68.74056586 312.48615038 C-68.74419572 339.0515486 -68.7601124 365.61691951 -68.78342474 392.18230728 C-68.80802647 420.26837105 -68.82174093 448.35441921 -68.82293582 476.44049406 C-68.82310727 479.52437052 -68.8233227 482.60824696 -68.82357025 485.69212341 C-68.82362602 486.4514611 -68.82368179 487.21079879 -68.82373925 487.99314671 C-68.82488948 500.20857678 -68.83590925 512.42397883 -68.85045731 524.63939945 C-68.86483117 536.92108337 -68.86805429 549.2027314 -68.86001733 561.48442143 C-68.85595655 568.13693794 -68.85705421 574.78938025 -68.87107468 581.44189072 C-68.88379665 587.53400642 -68.88263084 593.62595694 -68.87048396 599.71807235 C-68.86852402 601.92003755 -68.87161909 604.12201438 -68.88032833 606.32396322 C-68.94328936 623.32082441 -68.21461659 637.76980824 -56.4375 651.125 C-45.39610644 661.43517544 -30.2026889 662.68553735 -15.87304688 662.63378906 C-14.65969666 662.6372937 -13.44634644 662.64079834 -12.19622803 662.64440918 C-8.89292673 662.65165955 -5.58978807 662.65001535 -2.28648949 662.64365101 C1.21782349 662.63852266 4.72212694 662.64330367 8.22644043 662.64642334 C14.13405244 662.65005486 20.04161437 662.64529739 25.94921875 662.63574219 C31.9401375 662.62616104 37.93095651 662.62601941 43.921875 662.63574219 C90.25160222 662.81562799 90.25160222 662.81562799 136.5 660.375 C137.43726929 660.301745 138.37453857 660.22848999 139.34020996 660.15301514 C144.44628995 659.75125554 149.53581903 659.26372813 154.625 658.6875 C155.72377975 658.56636337 155.72377975 658.56636337 156.84475708 658.44277954 C241.45519501 649.00913143 325.61025289 623.46687158 417.60546875 551.046875 C420.1577539 548.69091948 422.75576246 546.40557999 425.375 544.125 C435.69378583 534.85304752 444.97395508 524.29632175 453.5 513.375 C453.98823242 512.75399414 454.47646484 512.13298828 454.97949219 511.49316406 C517.59070333 431.67814293 539.26398489 332.68211714 539.8125 233.0625 C539.82694153 231.57225815 539.82694153 231.57225815 539.8416748 230.0519104 C539.98970278 212.29499757 538.71179209 195.86692197 526.0625 182.125 C507.82470725 165.16848716 483.3661014 163.69259296 459.63964844 164.23876953 C441.93965467 165.00677859 424.76410461 171.11030418 412.35546875 184.0390625 C403.85176377 194.7447795 402.23545907 206.32643926 401.97265625 219.515625 C401.9199501 221.46833353 401.86722919 223.42104177 401.81376553 225.37372971 C401.70449976 229.46270794 401.60974806 233.55204623 401.51654053 237.64141846 C399.9023043 308.40633623 385.01872812 380.53371273 335.5703125 434.1171875 C333.71571134 436.13975254 331.94964839 438.20983984 330.1875 440.3125 C289.17988688 487.01820971 223.87260412 508.85510667 164.3125 517.625 C163.29494629 517.77614258 162.27739258 517.92728516 161.22900391 518.08300781 C140.93454994 520.87290482 120.63763538 521.68679416 100.17041016 521.58081055 C96.41952988 521.56209856 92.66889165 521.56030479 88.91796875 521.56054688 C86.52864368 521.55564597 84.13932027 521.549824 81.75 521.54296875 C80.63052979 521.54185593 79.51105957 521.5407431 78.35766602 521.53959656 C77.33729248 521.53321671 76.31691895 521.52683685 75.265625 521.52026367 C74.36618164 521.51645187 73.46673828 521.51264008 72.54003906 521.50871277 C70.5 521.375 70.5 521.375 69.5 520.375 C69.39892624 518.02850514 69.36345461 515.71131525 69.36971474 513.36418343 C69.36777131 512.6183756 69.36582788 511.87256778 69.36382556 511.10415971 C69.35845721 508.57301429 69.36027508 506.04192257 69.36196899 503.51077271 C69.35955332 501.69046208 69.35669181 499.870152 69.35341966 498.04984272 C69.345633 493.02243885 69.34404546 487.9950486 69.34336853 482.96763945 C69.34153469 477.55498555 69.33393102 472.14233974 69.32688904 466.72969055 C69.31534295 457.34102605 69.30710919 447.95236337 69.30076981 438.563694 C69.29046017 423.72399964 69.26989991 408.8843278 69.24765015 394.04464722 C69.24016961 388.97089584 69.23275596 383.89714437 69.22536278 378.82339287 C69.22351221 377.55522749 69.22166165 376.28706211 69.219755 374.98046748 C69.19881101 360.53157687 69.17999196 346.08268376 69.16210938 331.63378906 C69.1612897 330.97329499 69.16047002 330.31280091 69.1596255 329.63229186 C69.14055209 314.23152775 69.12358978 298.83076377 69.11126709 283.42999268 C69.11073742 282.76824063 69.11020775 282.10648859 69.10966204 281.42468345 C69.10488082 275.42637219 69.10020067 269.42806084 69.09551747 263.4297495 C69.07809531 241.47011344 69.04924632 219.51051125 69.0106281 197.55090225 C68.98722641 184.00107232 68.97323337 170.45129763 68.97130047 156.90144734 C68.96919068 147.61119987 68.95625794 138.32100728 68.93482114 129.03078444 C68.92279569 123.67052739 68.91563843 118.31037931 68.92153358 112.95010948 C68.92683723 108.03969861 68.91832456 103.12950981 68.89897721 98.21913598 C68.89441048 96.44577097 68.89486004 94.67238419 68.90092559 92.89902367 C68.94645232 78.27983304 67.61482425 65.57180082 57.56640625 54.18359375 C41.403382 38.55439415 16.4533594 36.89370532 -4.84375 37.1640625 C-22.86768018 37.66748952 -43.0250924 40.26202174 -56.5 53.375 Z " fill="#04394B" transform="translate(2603.5,-0.375)"/>
</svg>
